Coordinates
version=1
nRows=10
nColumns=46
inDegrees=yes

Units are S.I. units (second, meters, Newtons, ...)
Angles are in degrees.

endheader
time	pelvis_tilt	pelvis_list	pelvis_rotation	pelvis_tx	pelvis_ty	pelvis_tz	bb_angle	bb_tx	bb_ty	bb_tz	hip_flexion_r	hip_adduction_r	hip_rotation_r	knee_angle_r	knee_angle_r_beta	ankle_angle_r	subtalar_angle_r	mtp_angle_r	crank_angle_r	hip_flexion_l	hip_adduction_l	hip_rotation_l	knee_angle_l	knee_angle_l_beta	ankle_angle_l	subtalar_angle_l	mtp_angle_l	crank_angle_l	lumbar_extension	lumbar_bending	lumbar_rotation	arm_flex_r	arm_add_r	arm_rot_r	elbow_flex_r	pro_sup_r	wrist_flex_r	wrist_dev_r	arm_flex_l	arm_add_l	arm_rot_l	elbow_flex_l	pro_sup_l	wrist_flex_l	wrist_dev_l
      2.50500000	    -24.35880168	     13.13323661	      3.19100162	      0.22147831	      1.13255619	     -0.26649082	      0.00000000	      0.50000000	      0.00000000	      0.25000000	     40.58815602	    -15.12024733	      9.18493565	     24.55446170	      0.42855620	     -6.88642278	    -10.30212917	      0.00000000	      0.00000000	     72.83713895	      1.69041442	     -7.88341134	    108.31182194	      1.89039791	      8.91246214	     -5.70134947	      0.00000000	      0.00000000	    -40.33558748	     -6.02393436	     -4.39217862	     63.61713354	    -31.50343505	     43.76528920	     56.04085434	     45.79403694	      0.00000000	      0.00000000	     66.92027019	    -21.88622761	     49.47453372	     46.32368626	     45.85751257	      0.00000000	      0.00000000
      2.51000000	    -23.92748638	     13.24994093	      3.17687998	      0.22307963	      1.13349605	     -0.26647172	      0.00000000	      0.50000000	      0.00000000	      0.25000000	     39.64620562	    -15.34308692	      8.89680610	     24.05919719	      0.41991221	     -7.39041150	    -10.16683012	      0.00000000	      0.00000000	     72.70383599	      1.76855058	     -7.92828801	    108.58196100	      1.89511273	      8.75704635	     -5.74977490	      0.00000000	      0.00000000	    -40.53921793	     -6.14411313	     -4.66856894	     63.69511939	    -30.85489963	     43.92754953	     54.69796666	     45.68254806	      0.00000000	      0.00000000	     66.74222725	    -21.69544312	     49.43462887	     45.73055532	     45.82506458	      0.00000000	      0.00000000
      2.51500000	    -23.82559159	     13.36497072	      3.09878266	      0.22447969	      1.13374896	     -0.26638105	      0.00000000	      0.50000000	      0.00000000	      0.25000000	     39.19139498	    -15.47898398	      8.76704337	     23.76128144	      0.41471260	     -7.76401961	     -9.88032344	      0.00000000	      0.00000000	     72.96416118	      1.69323369	     -8.02299975	    108.90157091	      1.90069097	      8.56837231	     -5.65973317	      0.00000000	      0.00000000	    -40.39473991	     -6.38149708	     -4.77670981	     63.33614198	    -30.70573262	     44.07258819	     54.42117695	     45.67307962	      0.00000000	      0.00000000	     66.42528519	    -21.63859898	     49.50241495	     45.59554335	     45.82653526	      0.00000000	      0.00000000
      2.52000000	    -23.69688576	     13.48252622	      3.03814189	      0.22562321	      1.13381062	     -0.26637241	      0.00000000	      0.50000000	      0.00000000	      0.25000000	     38.80903224	    -15.61052782	      8.68408152	     23.69164627	      0.41349723	     -7.91116655	     -9.80405175	      0.00000000	      0.00000000	     73.24679214	      1.68632162	     -8.07454193	    109.27839079	      1.90726772	      8.47702689	     -5.63754839	      0.00000000	      0.00000000	    -40.32211916	     -6.59304273	     -4.83788492	     63.24503332	    -30.67466551	     44.10137693	     54.34312444	     45.66756064	      0.00000000	      0.00000000	     66.30678350	    -21.60309043	     49.53058063	     45.55571202	     45.82672354	      0.00000000	      0.00000000
      2.52500000	    -23.42216966	     13.58881922	      3.06177683	      0.22725568	      1.13462122	     -0.26638703	      0.00000000	      0.50000000	      0.00000000	      0.25000000	     38.00903538	    -15.83520762	      8.39299646	     23.14497526	      0.40395602	     -8.52308652	     -9.50230169	      0.00000000	      0.00000000	     73.26041833	      1.76422056	     -8.14360904	    109.46598112	      1.91054179	      8.19518012	     -5.74634927	      0.00000000	      0.00000000	    -40.17796629	     -6.76390832	     -5.28273149	     63.29319773	    -29.03566468	     44.16581820	     51.14657301	     45.35071684	      0.00000000	      0.00000000	     65.93164464	    -21.08274370	     49.23651720	     43.88191715	     45.66469664	      0.00000000	      0.00000000
      2.53000000	    -23.28040540	     13.68390630	      3.00828278	      0.22858977	      1.13488785	     -0.26635659	      0.00000000	      0.50000000	      0.00000000	      0.25000000	     37.56274482	    -15.96204464	      8.26396549	     22.96973781	      0.40089755	     -8.90030792	     -9.32002297	      0.00000000	      0.00000000	     73.47156047	      1.72914201	     -8.21995992	    109.75078821	      1.91551261	      8.04490599	     -5.71596747	      0.00000000	      0.00000000	    -40.11656166	     -6.95666771	     -5.32628751	     62.96325358	    -28.95959838	     44.27371536	     50.97452558	     45.35340750	      0.00000000	      0.00000000	     65.62891811	    -21.02655762	     49.29052833	     43.83837770	     45.67835606	      0.00000000	      0.00000000
      2.53500000	    -23.15977107	     13.76674024	      2.97145128	      0.22974979	      1.13493537	     -0.26642182	      0.00000000	      0.50000000	      0.00000000	      0.25000000	     37.18602311	    -16.07242747	      8.21437288	     22.93173783	      0.40023433	     -9.06417456	     -9.24715620	      0.00000000	      0.00000000	     73.73197732	      1.70156416	     -8.27849958	    110.07689613	      1.92120427	      7.98015972	     -5.71692780	      0.00000000	      0.00000000	    -40.03624733	     -7.11820875	     -5.39935803	     62.85529131	    -28.94878521	     44.29922960	     50.90719799	     45.35008808	      0.00000000	      0.00000000	     65.50121490	    -20.97549318	     49.31917438	     43.81675211	     45.68189459	      0.00000000	      0.00000000
      2.54000000	    -22.98416531	     13.82356954	      2.96001094	      0.23131303	      1.13543013	     -0.26643411	      0.00000000	      0.50000000	      0.00000000	      0.25000000	     36.57241955	    -16.20443309	      8.01948914	     22.55517544	      0.39366207	     -9.60429206	     -9.00428842	      0.00000000	      0.00000000	     73.83391254	      1.68915811	     -8.34440839	    110.26812289	      1.92454180	      7.82727128	     -5.80962782	      0.00000000	      0.00000000	    -39.94378179	     -7.27689771	     -5.42584982	     62.30370659	    -28.77977519	     44.42801712	     50.44235866	     45.31259691	      0.00000000	      0.00000000	     65.04380838	    -20.79401953	     49.37717803	     43.61253694	     45.67285265	      0.00000000	      0.00000000
      2.54500000	    -22.86821830	     13.88834081	      2.93467994	      0.23247072	      1.13549180	     -0.26653021	      0.00000000	      0.50000000	      0.00000000	      0.25000000	     36.20256155	    -16.30234756	      7.98752462	     22.53848309	      0.39337074	     -9.75197685	     -8.95370485	      0.00000000	      0.00000000	     74.08100092	      1.68065263	     -8.39336977	    110.55664417	      1.92957745	      7.78403861	     -5.82919760	      0.00000000	      0.00000000	    -39.89864480	     -7.41301581	     -5.49456989	     62.20865153	    -28.76112217	     44.43911240	     50.33657516	     45.30136383	      0.00000000	      0.00000000	     64.92522161	    -20.73293210	     49.39514090	     43.56076272	     45.67000138	      0.00000000	      0.00000000
      2.55000000	    -22.61332218	     13.89475752	      2.97105405	      0.23404335	      1.13612140	     -0.26664160	      0.00000000	      0.50000000	      0.00000000	      0.25000000	     35.47002272	    -16.40735047	      7.76192905	     22.17317452	      0.38699490	    -10.30043627	     -8.94521520	      0.00000000	      0.00000000	     74.08615368	      1.73355901	     -8.40646150	    110.71234823	      1.93229500	      7.62637915	     -6.07305711	      0.00000000	      0.00000000	    -39.76915282	     -7.48922319	     -5.63622164	     62.17178751	    -27.51337211	     44.18917959	     47.53473202	     44.96676109	      0.00000000	      0.00000000	     64.65999160	    -19.86494102	     48.95434123	     41.65883499	     45.40720635	      0.00000000	      0.00000000
